<svg width="80" height="80" viewBox="0 0 80 80" fill="none" xmlns="http://www.w3.org/2000/svg">
<path d="M77.5 39.7156V71.2938C77.5 72.2503 77.12 73.1677 76.4438 73.8443C75.7676 74.5208 74.8503 74.9011 73.8938 74.9016H52.4828C52.0091 74.9015 51.5401 74.8081 51.1025 74.6267C50.6649 74.4454 50.2673 74.1796 49.9324 73.8446C49.5976 73.5096 49.332 73.1119 49.1508 72.6742C48.9696 72.2365 48.8764 71.7674 48.8766 71.2938V39.7156C48.8765 39.242 48.9697 38.773 49.1509 38.3355C49.3321 37.8979 49.5977 37.5003 49.9326 37.1654C50.2675 36.8306 50.6651 36.5649 51.1027 36.3837C51.5402 36.2025 52.0092 36.1093 52.4828 36.1094H57.3531V36.1203C57.353 36.4724 57.4223 36.8211 57.5571 37.1465C57.6918 37.4718 57.8893 37.7674 58.1383 38.0164C58.3873 38.2654 58.6829 38.4629 59.0082 38.5976C59.3335 38.7323 59.6822 38.8016 60.0344 38.8016H66.3422C66.6943 38.8016 67.043 38.7323 67.3684 38.5976C67.6937 38.4629 67.9893 38.2654 68.2383 38.0164C68.4873 37.7674 68.6848 37.4718 68.8195 37.1465C68.9542 36.8211 69.0235 36.4724 69.0234 36.1203V36.1094H73.8938C74.8502 36.1095 75.7674 36.4894 76.4437 37.1657C77.1199 37.842 77.4999 38.7592 77.5 39.7156ZM58.8938 59.7078V54.5547H53.7422V59.7078H58.8938Z" fill="#F8EC7D"/>
<path d="M57.3531 36.1094V35.9453C57.353 35.5932 57.4223 35.2445 57.5571 34.9191C57.6918 34.5938 57.8893 34.2982 58.1383 34.0492C58.3873 33.8002 58.6829 33.6027 59.0082 33.468C59.3336 33.3333 59.6822 33.264 60.0344 33.264H66.3422C66.6943 33.264 67.043 33.3333 67.3684 33.468C67.6937 33.6027 67.9893 33.8002 68.2383 34.0492C68.4873 34.2982 68.6848 34.5938 68.8195 34.9191C68.9542 35.2445 69.0235 35.5932 69.0234 35.9453V36.1203C69.0235 36.4724 68.9542 36.8211 68.8195 37.1465C68.6848 37.4718 68.4873 37.7674 68.2383 38.0164C67.9893 38.2654 67.6937 38.4629 67.3684 38.5976C67.043 38.7323 66.6943 38.8016 66.3422 38.8015H60.0344C59.6822 38.8016 59.3336 38.7323 59.0082 38.5976C58.6829 38.4629 58.3873 38.2654 58.1383 38.0164C57.8893 37.7674 57.6918 37.4718 57.5571 37.1465C57.4223 36.8211 57.353 36.4724 57.3531 36.1203V36.1094Z" fill="#6FE3FF"/>
<path d="M61.1422 22.0282V33.2641H60.0344C59.6822 33.264 59.3335 33.3333 59.0082 33.468C58.6829 33.6028 58.3873 33.8003 58.1383 34.0492C57.8893 34.2982 57.6918 34.5939 57.5571 34.9192C57.4223 35.2445 57.353 35.5932 57.3531 35.9454V36.1094H52.4828C52.0092 36.1093 51.5402 36.2026 51.1027 36.3838C50.6651 36.565 50.2675 36.8306 49.9326 37.1655C49.5977 37.5004 49.3321 37.898 49.1509 38.3355C48.9697 38.7731 48.8765 39.2421 48.8766 39.7157V62.9657L31.8203 72.8125V38.9532L61.1391 22.0266L61.1422 22.0282Z" fill="#C16752"/>
<path d="M31.8203 38.9531L16.8734 30.3235L46.1906 13.3953H46.1922L61.1391 22.0266L31.8203 38.9531Z" fill="#AF593C"/>
<path d="M58.8938 54.5547H53.7422V59.7078H58.8938V54.5547Z" fill="#6FE3FF"/>
<path d="M46.1906 13.3953L16.8734 30.3235L2.50312 22.0266L31.8203 5.09845L46.1906 13.3953Z" fill="#C16752"/>
<path d="M31.8203 38.9532V72.8125L2.5 55.8844V22.0282L2.50313 22.0266L16.8734 30.3235L31.8203 38.9532Z" fill="#E48E66"/>
<path d="M54.8875 50.7828H53.7422C53.4521 50.7828 53.1739 50.6676 52.9688 50.4625C52.7637 50.2574 52.6484 49.9792 52.6484 49.6891V44.5359C52.6484 44.2459 52.7637 43.9677 52.9688 43.7626C53.1739 43.5574 53.4521 43.4422 53.7422 43.4422H58.8938C59.1838 43.4422 59.462 43.5574 59.6672 43.7626C59.8723 43.9677 59.9875 44.2459 59.9875 44.5359V45.2719C59.9877 45.5307 59.8962 45.7812 59.7291 45.9789C59.5621 46.1765 59.3304 46.3086 59.0751 46.3515C58.8199 46.3944 58.5578 46.3454 58.3352 46.2133C58.1127 46.0811 57.9443 45.8743 57.8598 45.6297H54.8359V48.5953H54.8875C55.1776 48.5953 55.4558 48.7106 55.6609 48.9157C55.866 49.1208 55.9813 49.399 55.9813 49.6891C55.9813 49.9792 55.866 50.2574 55.6609 50.4625C55.4558 50.6676 55.1776 50.7828 54.8875 50.7828Z" fill="#6FE3FF"/>
<path d="M54.8875 70.8187H53.7422C53.4521 70.8187 53.1739 70.7035 52.9688 70.4984C52.7637 70.2933 52.6484 70.0151 52.6484 69.725V64.5734C52.6484 64.2833 52.7637 64.0051 52.9688 63.8C53.1739 63.5949 53.4521 63.4797 53.7422 63.4797H58.8938C59.1838 63.4797 59.462 63.5949 59.6672 63.8C59.8723 64.0051 59.9875 64.2833 59.9875 64.5734V65.6266C59.9902 65.7702 59.9645 65.9129 59.912 66.0467C59.8595 66.1804 59.7812 66.3024 59.6815 66.4059C59.5818 66.5093 59.4628 66.5922 59.3311 66.6496C59.1994 66.707 59.0577 66.7379 58.9141 66.7406C58.7704 66.7433 58.6277 66.7176 58.494 66.6651C58.3602 66.6126 58.2382 66.5343 58.1347 66.4346C58.0313 66.3349 57.9485 66.2159 57.891 66.0842C57.8336 65.9525 57.8027 65.8108 57.8 65.6672H54.8359V68.6312H54.8875C55.1776 68.6312 55.4558 68.7465 55.6609 68.9516C55.866 69.1567 55.9813 69.4349 55.9813 69.725C55.9813 70.0151 55.866 70.2933 55.6609 70.4984C55.4558 70.7035 55.1776 70.8187 54.8875 70.8187Z" fill="#6FE3FF"/>
<path d="M58.2094 50.6235C58.0658 50.6237 57.9236 50.5955 57.7909 50.5406C57.6583 50.4857 57.5378 50.4051 57.4364 50.3035L55.6875 48.5566C55.5859 48.455 55.5054 48.3344 55.4504 48.2017C55.3954 48.069 55.3671 47.9268 55.3671 47.7832C55.3671 47.6395 55.3954 47.4973 55.4504 47.3646C55.5054 47.2319 55.5859 47.1113 55.6875 47.0097C55.7891 46.9082 55.9096 46.8276 56.0424 46.7726C56.1751 46.7176 56.3173 46.6894 56.4609 46.6894C56.6046 46.6894 56.7468 46.7176 56.8795 46.7726C57.0122 46.8276 57.1328 46.9082 57.2344 47.0097L58.2095 47.9839L61.4127 44.7808C61.5142 44.6792 61.6348 44.5987 61.7675 44.5437C61.9002 44.4887 62.0425 44.4604 62.1861 44.4604C62.3297 44.4604 62.472 44.4887 62.6047 44.5437C62.7374 44.5987 62.858 44.6792 62.9595 44.7808C63.0611 44.8824 63.1417 45.003 63.1966 45.1357C63.2516 45.2684 63.2799 45.4106 63.2799 45.5543C63.2799 45.6979 63.2516 45.8401 63.1966 45.9728C63.1417 46.1055 63.0611 46.2261 62.9595 46.3277L58.983 50.3042C58.8814 50.4058 58.7608 50.4862 58.628 50.541C58.4953 50.5958 58.353 50.6238 58.2094 50.6235Z" fill="#2561A1"/>
<path d="M58.2094 70.8188C58.0658 70.819 57.9236 70.7909 57.7909 70.7359C57.6583 70.681 57.5378 70.6004 57.4364 70.4988L55.6875 68.7519C55.5859 68.6503 55.5054 68.5298 55.4504 68.3971C55.3954 68.2643 55.3671 68.1221 55.3671 67.9785C55.3671 67.8348 55.3954 67.6926 55.4504 67.5599C55.5054 67.4272 55.5859 67.3066 55.6875 67.205C55.7891 67.1035 55.9096 67.0229 56.0424 66.9679C56.1751 66.913 56.3173 66.8847 56.4609 66.8847C56.6046 66.8847 56.7468 66.913 56.8795 66.9679C57.0122 67.0229 57.1328 67.1035 57.2344 67.205L58.2095 68.1793L61.4127 64.9761C61.5142 64.8746 61.6348 64.794 61.7675 64.739C61.9002 64.6841 62.0425 64.6558 62.1861 64.6558C62.3297 64.6558 62.472 64.6841 62.6047 64.739C62.7374 64.794 62.858 64.8746 62.9595 64.9761C63.0611 65.0777 63.1417 65.1983 63.1966 65.331C63.2516 65.4637 63.2799 65.6059 63.2799 65.7496C63.2799 65.8932 63.2516 66.0354 63.1966 66.1682C63.1417 66.3009 63.0611 66.4214 62.9595 66.523L58.983 70.4996C58.8814 70.6011 58.7608 70.6816 58.628 70.7363C58.4953 70.7911 58.353 70.8191 58.2094 70.8188Z" fill="#2561A1"/>
<path d="M72.6344 48.2062H65.7641C65.474 48.2062 65.1958 48.091 64.9907 47.8859C64.7855 47.6808 64.6703 47.4026 64.6703 47.1125C64.6703 46.8224 64.7855 46.5442 64.9907 46.3391C65.1958 46.134 65.474 46.0187 65.7641 46.0187H72.6344C72.9244 46.0187 73.2027 46.134 73.4078 46.3391C73.6129 46.5442 73.7281 46.8224 73.7281 47.1125C73.7281 47.4026 73.6129 47.6808 73.4078 47.8859C73.2027 48.091 72.9244 48.2062 72.6344 48.2062Z" fill="#E48E66"/>
<path d="M72.6344 58.225H65.7641C65.474 58.225 65.1958 58.1098 64.9907 57.9047C64.7855 57.6996 64.6703 57.4214 64.6703 57.1313C64.6703 56.8412 64.7855 56.563 64.9907 56.3579C65.1958 56.1528 65.474 56.0375 65.7641 56.0375H72.6344C72.9244 56.0375 73.2027 56.1528 73.4078 56.3579C73.6129 56.563 73.7281 56.8412 73.7281 57.1313C73.7281 57.4214 73.6129 57.6996 73.4078 57.9047C73.2027 58.1098 72.9244 58.225 72.6344 58.225Z" fill="#E48E66"/>
<path d="M72.6344 68.2438H65.7641C65.474 68.2438 65.1958 68.1285 64.9907 67.9234C64.7855 67.7183 64.6703 67.4401 64.6703 67.15C64.6703 66.8599 64.7855 66.5817 64.9907 66.3766C65.1958 66.1715 65.474 66.0563 65.7641 66.0563H72.6344C72.9244 66.0563 73.2027 66.1715 73.4078 66.3766C73.6129 66.5817 73.7281 66.8599 73.7281 67.15C73.7281 67.4401 73.6129 67.7183 73.4078 67.9234C73.2027 68.1285 72.9244 68.2438 72.6344 68.2438Z" fill="#E48E66"/>
</svg>
