<svg width="80" height="80" viewBox="0 0 80 80" fill="none" xmlns="http://www.w3.org/2000/svg">
<g clip-path="url(#clip0)">
<path d="M51.6498 68.8523V4.36141C51.6498 1.95281 49.6975 0.0003125 47.2889 0H8.36312H8.35297C5.55219 0 3.28188 2.27047 3.28188 5.07109V5.08125V68.1323V68.1425C3.28188 70.9433 5.55234 73.2136 8.35297 73.2136H8.36312H47.2886C49.6972 73.2137 51.6498 71.2611 51.6498 68.8523Z" fill="#EBB044"/>
<path d="M56.5153 0H46.0009C48.4097 0 50.3624 1.95266 50.3624 4.36141V68.8525C50.3624 71.2613 48.4097 73.2139 46.0009 73.2139H56.5153C58.9241 73.2139 60.8767 71.2613 60.8767 68.8525V4.36141C60.8766 1.95266 58.9239 0 56.5153 0V0Z" fill="#E29624"/>
<path d="M58.8667 75.6386V11.9355L54.995 8.06378C54.177 7.24581 53.0678 6.78644 51.9111 6.78644H15.1494C12.343 6.78644 10.0681 9.06144 10.0681 11.8677V74.9289C10.0681 77.7297 12.3386 80 15.1392 80H54.5058C56.9144 79.9999 58.8667 78.0472 58.8667 75.6386Z" fill="#FFFBE4"/>
<path d="M57.5762 19.5768C57.3934 19.5768 57.215 19.5582 57.0423 19.5235V75.6387C57.0423 78.0474 55.0897 80.0001 52.6811 80.0001H63.3015C65.7103 80.0001 67.663 78.0474 67.663 75.6387V22.5382C67.663 21.9149 67.5225 21.2891 67.2712 20.7316L65.3322 19.5768H57.5762Z" fill="#FBF4C6"/>
<path d="M66.3855 19.4543L54.995 8.06379C54.622 7.69082 54.1886 7.39254 53.7177 7.17816V18.0278C53.7177 19.5211 54.9283 20.7318 56.4216 20.7318H67.2713C67.0567 20.2607 66.7583 19.8272 66.3855 19.4543Z" fill="#EABC6B"/>
<path d="M72.4896 34.4969L76.3491 30.6374C76.8413 30.1452 76.8413 29.3471 76.3491 28.8547L74.036 26.5416C73.5438 26.0494 72.7457 26.0493 72.2533 26.5416L68.3938 30.4012L72.4896 34.4969Z" fill="#5766CB"/>
<path d="M61.9019 56.2086C61.5928 56.2086 61.2839 56.0907 61.0481 55.855C60.5767 55.3836 60.5767 54.6193 61.0481 54.1477L72.0489 43.1468C72.215 42.9807 72.3066 42.7599 72.3066 42.5252C72.3066 42.2904 72.215 42.0696 72.0491 41.9036L66.518 36.3725C66.0466 35.9011 66.0466 35.1368 66.518 34.6652C66.9895 34.1938 67.7538 34.1938 68.2255 34.6652L73.7564 40.1961C74.3784 40.8182 74.7211 41.6454 74.7211 42.525C74.7211 43.4049 74.3784 44.2321 73.7563 44.854L62.7556 55.8547C62.5198 56.0907 62.2108 56.2086 61.9019 56.2086Z" fill="#BEB9DD"/>
<path d="M36.4073 71.3488L30.0536 73.7969C29.4528 74.0285 28.8622 73.4379 29.0938 72.8371L31.5419 66.4835C31.9473 65.4313 32.5688 64.4757 33.3661 63.6785L67.057 29.9876C67.7597 29.2849 68.8989 29.2849 69.6016 29.9876L72.9034 33.2893C73.6061 33.9919 73.6061 35.1312 72.9034 35.8338L39.2123 69.5246C38.415 70.3219 37.4595 70.9433 36.4073 71.3488Z" fill="#DD636E"/>
<path d="M57.0425 51.6946L72.9033 35.8338C73.6059 35.1312 73.6059 33.9919 72.9033 33.2893L69.6014 29.9876C68.8987 29.2849 67.7595 29.2849 67.0569 29.9876L57.0423 40.0021V51.6946H57.0425Z" fill="#DA4A54"/>
<path d="M36.4074 71.3488L30.0536 73.797C29.4528 74.0285 28.8622 73.4379 29.0938 72.8371L31.5419 66.4835C31.9473 65.4313 32.5688 64.4757 33.3661 63.6785L39.2124 69.5248C38.415 70.322 37.4595 70.9434 36.4074 71.3488Z" fill="#938BC6"/>
<path d="M23.4603 16.588H16.6464C15.9795 16.588 15.4392 17.1284 15.4392 17.7951C15.4392 18.4619 15.9797 19.0023 16.6464 19.0023H18.8323V30.1334C18.8323 30.8001 19.3728 31.3406 20.0395 31.3406C20.7064 31.3406 21.2467 30.8001 21.2467 30.1334V19.0023H23.4602C24.127 19.0023 24.6673 18.4619 24.6673 17.7951C24.6673 17.1284 24.1272 16.588 23.4603 16.588Z" fill="#3D4FC3"/>
<path d="M29.8239 19.0025H46.7147C47.3816 19.0025 47.9219 18.462 47.9219 17.7953C47.9219 17.1286 47.3814 16.5881 46.7147 16.5881H29.8239C29.157 16.5881 28.6167 17.1286 28.6167 17.7953C28.6167 18.462 29.1572 19.0025 29.8239 19.0025Z" fill="#DDDAEC"/>
<path d="M46.7147 22.7572H29.8239C29.157 22.7572 28.6167 23.2977 28.6167 23.9644C28.6167 24.6311 29.1572 25.1716 29.8239 25.1716H46.7147C47.3816 25.1716 47.9219 24.6311 47.9219 23.9644C47.9219 23.2977 47.3814 22.7572 46.7147 22.7572Z" fill="#DDDAEC"/>
<path d="M46.7147 28.9263H29.8239C29.157 28.9263 28.6167 29.4667 28.6167 30.1335C28.6167 30.8002 29.1572 31.3406 29.8239 31.3406H46.7147C47.3816 31.3406 47.9219 30.8002 47.9219 30.1335C47.9219 29.4667 47.3814 28.9263 46.7147 28.9263Z" fill="#DDDAEC"/>
</g>
<defs>
<clipPath id="clip0">
<rect width="80" height="80" fill="white"/>
</clipPath>
</defs>
</svg>
