<svg width="80" height="80" viewBox="0 0 80 80" fill="none" xmlns="http://www.w3.org/2000/svg">
<path d="M6.56125 57.9449C2.93766 57.9449 0 55.0072 0 51.3836V18.8741H13.1225L18.8542 30.1252L13.1225 51.3836C13.1225 55.0072 10.185 57.9449 6.56125 57.9449Z" fill="#8993DA"/>
<path d="M13.1231 36.4822L16.8631 45.9186L13.1231 51.3842C13.1231 55.0069 10.1851 57.9447 6.56093 57.9447C2.93827 57.9447 0.000457764 55.0067 0.000457764 51.3842V36.4822C0.000457764 40.1066 2.93843 43.0444 6.56093 43.0444C10.1853 43.0444 13.1231 40.1064 13.1231 36.4822Z" fill="#707DD3"/>
<path d="M66.8769 18.8733L67.2799 52.7655L59.8391 60.2062L46.1413 73.9058C44.2186 75.8267 41.1036 75.8267 39.1827 73.9058C38.2214 72.9445 37.7424 71.6864 37.7424 70.4266C37.7424 69.1836 38.2095 67.9406 39.1472 66.9844L35.7877 70.3439C33.865 72.2648 30.75 72.2648 28.8291 70.3439C27.8694 69.3826 27.3888 68.1245 27.3888 66.8647C27.3888 65.6167 27.8609 64.3703 28.8038 63.4123L26.4106 65.8055C24.488 67.7264 21.373 67.7264 19.452 65.8055C18.4924 64.8442 18.0117 63.5844 18.0117 62.3262C18.0117 61.0783 18.4822 59.8319 19.425 58.8756L17.8042 60.4964C16.843 61.4561 15.5831 61.9367 14.325 61.9367C13.0652 61.9367 11.807 61.4561 10.8458 60.4964C8.92486 58.5737 8.92486 55.4587 10.8458 53.5378L13.0613 51.3223L18.0109 44.7437L37.6977 26.6859L25.962 22.0455C27.9927 20.0148 30.7467 18.8731 33.6188 18.8731H66.8769V18.8733Z" fill="#FFECE4"/>
<path d="M32.0092 32.3753L35.4317 34.4845L13.6127 56.3034C12.6514 57.2647 12.1706 58.5228 12.1706 59.7826C12.1706 60.3983 12.2853 61.0122 12.5164 61.5923C11.9077 61.3545 11.3375 60.9886 10.845 60.4961C9.88376 59.5348 9.40469 58.275 9.40469 57.0169C9.40469 55.757 9.8836 54.4989 10.845 53.5376L13.0609 51.3219L18.0109 43.6533L32.0092 32.3753Z" fill="#FFDDCE"/>
<path d="M65.971 53.2544L67.5728 54.8563C69.2094 56.4928 69.2094 59.1463 67.5728 60.7828C65.9363 62.4194 63.2828 62.4194 61.6463 60.7828L60.0444 59.181C58.4078 57.5444 58.4078 54.891 60.0444 53.2544C61.681 51.6178 64.3344 51.6178 65.971 53.2544Z" fill="#E2A770"/>
<path d="M58.0961 57.2327L61.6463 60.7828C63.2828 62.4194 63.2828 65.0728 61.6463 66.7094C60.0097 68.346 57.3563 68.346 55.7197 66.7094L52.1696 63.1592C50.533 61.5227 50.533 58.8692 52.1696 57.2327C53.8061 55.5961 56.4596 55.5961 58.0961 57.2327Z" fill="#E2A770"/>
<path d="M54.1178 65.1075L55.7197 66.7094C57.3563 68.346 57.3563 70.9994 55.7197 72.636C54.0831 74.2725 51.4297 74.2725 49.7931 72.636L48.1913 71.0341C46.5547 69.3976 46.5547 66.7441 48.1913 65.1075C49.8278 63.471 52.4813 63.471 54.1178 65.1075Z" fill="#E2A770"/>
<path d="M49.7931 72.6361C51.4297 74.2727 51.4297 76.9261 49.7931 78.5627C48.1566 80.1992 45.5031 80.1992 43.8666 78.5627C42.23 76.9261 42.23 74.2727 43.8666 72.6361C45.5031 70.9996 48.1566 70.9996 49.7931 72.6361Z" fill="#E2A770"/>
<path d="M68.412 59.5827C68.2114 60.0178 67.9314 60.4242 67.5737 60.7817C66.7558 61.6014 65.6831 62.0095 64.6106 62.0095C63.538 62.0095 62.4655 61.6014 61.6475 60.7817L60.0453 59.1795C58.4094 57.5436 58.4094 54.8908 60.0453 53.2531C60.4045 52.8939 60.8127 52.6139 61.2478 52.4116C60.5277 53.9598 60.8077 55.8588 62.0877 57.1389L63.6898 58.7394C64.5078 59.5574 65.5805 59.9672 66.653 59.9672C67.2533 59.9672 67.8555 59.8391 68.412 59.5827Z" fill="#D5985C"/>
<path d="M62.4856 65.509C62.285 65.9442 62.005 66.3506 61.6474 66.7081C60.8294 67.5278 59.7567 67.9359 58.6842 67.9359C57.6116 67.9359 56.5389 67.5278 55.7211 66.7081L52.171 63.1579C50.5333 61.522 50.5333 58.8675 52.171 57.2315C52.5285 56.874 52.9349 56.594 53.37 56.3932C52.6549 57.9431 52.9349 59.8387 54.2116 61.1172L57.7617 64.6673C58.5797 65.4853 59.6524 65.8951 60.7249 65.8951C61.3269 65.8953 61.9274 65.7672 62.4856 65.509Z" fill="#D5985C"/>
<path d="M56.5592 71.4354C56.3586 71.8706 56.0786 72.277 55.7211 72.6345C54.9031 73.4542 53.8305 73.8623 52.758 73.8623C51.6853 73.8623 50.6127 73.4542 49.7948 72.6345L48.1927 71.034C46.555 69.3964 46.555 66.7436 48.1927 65.1059C48.5519 64.7467 48.96 64.4667 49.3952 64.2643C48.675 65.8126 48.955 67.7115 50.2333 68.9917L51.8355 70.5939C52.6534 71.4118 53.7261 71.8217 54.7986 71.8217C55.4005 71.8217 56.0027 71.6918 56.5592 71.4354Z" fill="#D5985C"/>
<path d="M50.6345 77.3619C50.4322 77.797 50.1522 78.2052 49.7947 78.5627C48.9767 79.3806 47.9041 79.7888 46.8316 79.7888C45.7589 79.7888 44.6863 79.3806 43.8667 78.5627C43.0488 77.7447 42.6389 76.672 42.6389 75.5996C42.6389 74.5269 43.0488 73.4544 43.8667 72.6347C44.2259 72.2755 44.6358 71.9955 45.0709 71.7932C44.813 72.3514 44.683 72.9535 44.683 73.5572C44.683 74.6281 45.0911 75.7008 45.9091 76.5203C46.727 77.3383 47.7997 77.7481 48.8722 77.7481C49.4741 77.7481 50.078 77.6183 50.6345 77.3619Z" fill="#D5985C"/>
<path d="M51.0153 42.3679C49.7706 43.6109 48.1398 44.2349 46.5089 44.2349C44.8747 44.2349 43.2437 43.6109 42.0008 42.3679L35.5465 35.9137L32.0083 32.3754L13.062 51.3217L13.0806 41.1942L13.1228 18.8732H33.6189C35.4842 18.8732 37.2736 19.6153 38.5925 20.9342L51.0153 33.3553C53.5028 35.8445 53.5028 39.8804 51.0153 42.3679Z" fill="#E2A770"/>
<path d="M49.2336 41.5087C47.6011 41.5087 45.9701 40.8846 44.7256 39.6401L33.8956 28.8101C32.6903 27.6048 30.7361 27.6048 29.5308 28.8101L28.9878 29.3531L20.2095 38.1314C18.3104 40.0304 15.7572 41.1232 13.0806 41.194L13.062 51.3215L32.0083 32.3753L35.5465 35.9136L35.547 35.9131L42.0001 42.367C43.2448 43.61 44.8756 44.234 46.5081 44.234C48.1406 44.234 49.7715 43.61 51.0145 42.367C51.4901 41.8914 51.8747 41.3601 52.1698 40.7934C51.2523 41.2693 50.2437 41.5087 49.2336 41.5087Z" fill="#D5985C"/>
<path d="M28.4191 49.8799L28.8609 50.3457C30.1136 51.6665 30.0861 53.7446 28.7991 55.032L22.2189 61.6126C21.2576 62.5739 20.7769 63.832 20.7769 65.0918C20.7769 65.7074 20.8916 66.3214 21.1226 66.9015C20.5139 66.6637 19.9437 66.2978 19.4512 65.8053C18.49 64.844 18.0109 63.5842 18.0109 62.326C18.0109 61.0662 18.4898 59.8081 19.4512 58.8468L28.4191 49.8799Z" fill="#FFDDCE"/>
<path d="M37.7961 54.4182L38.238 54.884C39.4906 56.2048 39.4631 58.2829 38.1761 59.5702L31.5959 66.1509C30.6347 67.1121 30.1539 68.3702 30.1539 69.6301C30.1539 70.2457 30.2686 70.8596 30.4997 71.4398C29.8909 71.2019 29.3208 70.836 28.8283 70.3435C27.867 69.3823 27.388 68.1224 27.388 66.8643C27.388 65.6045 27.8669 64.3463 28.8283 63.3851L37.7961 54.4182Z" fill="#FFDDCE"/>
<path d="M48.1495 57.9803L48.5914 58.4461C49.844 59.7668 49.8166 61.845 48.5295 63.1323L41.9494 69.7129C40.9881 70.6742 40.5073 71.9323 40.5073 73.1922C40.5073 73.8078 40.622 74.4217 40.8531 75.0018C40.2442 74.764 39.6742 74.3981 39.1817 73.9056C38.2205 72.9443 37.7414 71.6845 37.7414 70.4264C37.7414 69.1665 38.2203 67.9084 39.1817 66.9472L48.1495 57.9803Z" fill="#FFDDCE"/>
<path d="M6.56124 30.125C8.21568 30.125 9.55686 28.7838 9.55686 27.1294C9.55686 25.4749 8.21568 24.1337 6.56124 24.1337C4.9068 24.1337 3.56561 25.4749 3.56561 27.1294C3.56561 28.7838 4.9068 30.125 6.56124 30.125Z" fill="#F9F6F9"/>
<path d="M73.4378 57.9447C69.8141 57.9447 66.8766 55.007 66.8766 51.3834V18.8739H79.9991V51.3834C79.9991 55.007 77.0616 57.9447 73.4378 57.9447Z" fill="#365E7D"/>
<path d="M80 36.4822V51.3842C80 55.0069 77.062 57.9447 73.4378 57.9447C69.8152 57.9447 66.8773 55.0067 66.8773 51.3842V36.4822C66.8773 40.1066 69.8153 43.0444 73.4378 43.0444C77.062 43.0444 80 40.1064 80 36.4822Z" fill="#2B4D66"/>
<path d="M73.5019 30.125C75.1563 30.125 76.4975 28.7838 76.4975 27.1294C76.4975 25.4749 75.1563 24.1337 73.5019 24.1337C71.8474 24.1337 70.5063 25.4749 70.5063 27.1294C70.5063 28.7838 71.8474 30.125 73.5019 30.125Z" fill="#F9F6F9"/>
<path d="M58.6342 33.1746C56.9159 33.1746 55.2838 32.3818 54.2218 31.012L44.8852 18.9687C42.9959 16.5315 43.4399 13.024 45.8771 11.1346C48.3146 9.24511 51.822 9.68933 53.7113 12.1264L57.9026 17.5328L66.0817 3.05027C67.5982 0.36511 71.004 -0.582389 73.6896 0.934173C76.3748 2.45074 77.3221 5.85683 75.8057 8.54198L63.497 30.3368C62.5777 31.9646 60.9048 33.0243 59.0404 33.1601C58.9046 33.1698 58.7692 33.1746 58.6342 33.1746Z" fill="#B3E59F"/>
<path d="M75.6628 2.81091C75.5847 2.75872 75.5028 2.71044 75.4209 2.66388C72.7352 1.147 69.3291 2.09435 67.812 4.78013L59.6336 19.2626L57.9026 17.5317L66.0811 3.04919C67.598 0.36341 71.0042 -0.583934 73.69 0.932941C74.5237 1.40388 75.1883 2.05528 75.6628 2.81091Z" fill="#95D6A4"/>
<path d="M62.6356 31.4828C61.6956 32.4525 60.4208 33.0593 59.0397 33.1598C58.9037 33.169 58.768 33.1747 58.6339 33.1747C56.9141 33.1747 55.2836 32.3817 54.2208 31.0118L44.8847 18.9676C42.9955 16.5312 43.4384 13.0246 45.8767 11.1336C46.597 10.5732 47.4141 10.2196 48.2536 10.0615C46.3402 12.0232 46.1169 15.1465 47.8441 17.3745L57.1802 29.4187C58.243 30.7886 59.8753 31.5815 61.5933 31.5815C61.7273 31.5815 61.8631 31.5759 61.9991 31.5667C62.215 31.5517 62.4272 31.5237 62.6356 31.4828Z" fill="#95D6A4"/>
</svg>
